# xmcd CD database file
#
# Track frame offsets:
#	150
#	21972
#	42139
#
# Disc length: 867 seconds
#
# Revision: 0
# Processed by: cddbd v1.5.1PL0 Copyright (c) Steve Scherf et al.
# Submitted via: CDex 1.51
#
DISCID=1b036103
DTITLE=ACO - 哀愁とバラード
DYEAR=1998
DGENRE=Pop
TTITLE0=哀愁とバラード
TTITLE1=ひとつのくもり
TTITLE2=帰れない二人(LIVE)
EXTD=YEAR: 1998
EXTT0=
EXTT1=
EXTT2=
PLAYORDER=
